<mxfile host="app.diagrams.net" modified="2022-11-05T21:07:50.929Z" agent="5.0 (Windows)" etag="rr7IKzPnAxAZ0E88ydX8" version="20.5.1" type="github">
  <diagram id="cbPLOwQLAhEIxyICOQtN" name="Page-1">
    <mxGraphModel dx="1114" dy="1627" grid="1" gridSize="10" guides="1" tooltips="1" connect="1" arrows="1" fold="1" page="1" pageScale="1" pageWidth="1169" pageHeight="827" math="0" shadow="0">
      <root>
        <mxCell id="0" />
        <mxCell id="1" parent="0" />
        <mxCell id="SgAXbenAV0-4lwXJKQor-26" value="" style="edgeStyle=orthogonalEdgeStyle;rounded=0;orthogonalLoop=1;jettySize=auto;html=1;entryX=0;entryY=0.5;entryDx=0;entryDy=0;" parent="1" source="SgAXbenAV0-4lwXJKQor-1" target="SgAXbenAV0-4lwXJKQor-28" edge="1">
          <mxGeometry relative="1" as="geometry">
            <mxPoint x="710" y="380" as="targetPoint" />
          </mxGeometry>
        </mxCell>
        <mxCell id="SgAXbenAV0-4lwXJKQor-1" value="aes_128" style="rounded=0;whiteSpace=wrap;html=1;fillColor=#f8cecc;strokeColor=#b85450;" parent="1" vertex="1">
          <mxGeometry x="580" y="340" width="80" height="80" as="geometry" />
        </mxCell>
        <mxCell id="SgAXbenAV0-4lwXJKQor-4" value="" style="edgeStyle=orthogonalEdgeStyle;rounded=0;orthogonalLoop=1;jettySize=auto;html=1;entryX=0.014;entryY=0.328;entryDx=0;entryDy=0;entryPerimeter=0;exitX=1;exitY=0.5;exitDx=0;exitDy=0;" parent="1" source="SgAXbenAV0-4lwXJKQor-8" target="SgAXbenAV0-4lwXJKQor-1" edge="1">
          <mxGeometry relative="1" as="geometry">
            <mxPoint x="560" y="360" as="targetPoint" />
            <mxPoint x="540" y="330" as="sourcePoint" />
            <Array as="points">
              <mxPoint x="560" y="330" />
              <mxPoint x="560" y="366" />
            </Array>
          </mxGeometry>
        </mxCell>
        <mxCell id="SgAXbenAV0-4lwXJKQor-8" value="word_stacker key" style="rounded=0;whiteSpace=wrap;html=1;fillColor=#fff2cc;strokeColor=#d6b656;" parent="1" vertex="1">
          <mxGeometry x="370" y="300" width="90" height="60" as="geometry" />
        </mxCell>
        <mxCell id="SgAXbenAV0-4lwXJKQor-14" value="" style="edgeStyle=orthogonalEdgeStyle;rounded=0;orthogonalLoop=1;jettySize=auto;html=1;entryX=0;entryY=0.25;entryDx=0;entryDy=0;" parent="1" source="SgAXbenAV0-4lwXJKQor-9" target="A_sIEahZJqi15oN8YQ3Y-8" edge="1">
          <mxGeometry relative="1" as="geometry">
            <mxPoint x="470" y="430" as="targetPoint" />
            <Array as="points">
              <mxPoint x="430" y="420" />
              <mxPoint x="430" y="400" />
            </Array>
          </mxGeometry>
        </mxCell>
        <mxCell id="SgAXbenAV0-4lwXJKQor-9" value="word_stacker word" style="rounded=0;whiteSpace=wrap;html=1;fillColor=#fff2cc;strokeColor=#d6b656;" parent="1" vertex="1">
          <mxGeometry x="320" y="390" width="90" height="60" as="geometry" />
        </mxCell>
        <mxCell id="SgAXbenAV0-4lwXJKQor-18" value="" style="edgeStyle=orthogonalEdgeStyle;rounded=0;orthogonalLoop=1;jettySize=auto;html=1;" parent="1" source="SgAXbenAV0-4lwXJKQor-16" target="SgAXbenAV0-4lwXJKQor-8" edge="1">
          <mxGeometry relative="1" as="geometry" />
        </mxCell>
        <mxCell id="SgAXbenAV0-4lwXJKQor-16" value="key_i" style="triangle;whiteSpace=wrap;html=1;fillColor=#dae8fc;strokeColor=#6c8ebf;" parent="1" vertex="1">
          <mxGeometry x="240" y="300" width="60" height="60" as="geometry" />
        </mxCell>
        <mxCell id="SgAXbenAV0-4lwXJKQor-19" value="" style="edgeStyle=orthogonalEdgeStyle;rounded=0;orthogonalLoop=1;jettySize=auto;html=1;" parent="1" source="SgAXbenAV0-4lwXJKQor-17" target="SgAXbenAV0-4lwXJKQor-9" edge="1">
          <mxGeometry relative="1" as="geometry" />
        </mxCell>
        <mxCell id="SgAXbenAV0-4lwXJKQor-17" value="word_i" style="triangle;whiteSpace=wrap;html=1;fillColor=#dae8fc;strokeColor=#6c8ebf;" parent="1" vertex="1">
          <mxGeometry x="190" y="390" width="60" height="60" as="geometry" />
        </mxCell>
        <mxCell id="SgAXbenAV0-4lwXJKQor-20" value="key [31:0]" style="text;html=1;align=center;verticalAlign=middle;resizable=0;points=[];autosize=1;strokeColor=none;fillColor=none;" parent="1" vertex="1">
          <mxGeometry x="290" y="310" width="70" height="20" as="geometry" />
        </mxCell>
        <mxCell id="SgAXbenAV0-4lwXJKQor-23" value="word [31:0]" style="text;html=1;align=center;verticalAlign=middle;resizable=0;points=[];autosize=1;strokeColor=none;fillColor=none;" parent="1" vertex="1">
          <mxGeometry x="235" y="395" width="80" height="30" as="geometry" />
        </mxCell>
        <mxCell id="SgAXbenAV0-4lwXJKQor-27" value="&lt;div&gt;aes_out&lt;/div&gt;&lt;div&gt;[127:0]&lt;/div&gt;" style="text;html=1;align=center;verticalAlign=middle;resizable=0;points=[];autosize=1;strokeColor=none;fillColor=none;" parent="1" vertex="1">
          <mxGeometry x="650" y="343" width="70" height="40" as="geometry" />
        </mxCell>
        <mxCell id="SgAXbenAV0-4lwXJKQor-31" value="" style="edgeStyle=orthogonalEdgeStyle;rounded=0;orthogonalLoop=1;jettySize=auto;html=1;" parent="1" source="SgAXbenAV0-4lwXJKQor-28" target="SgAXbenAV0-4lwXJKQor-30" edge="1">
          <mxGeometry relative="1" as="geometry" />
        </mxCell>
        <mxCell id="SgAXbenAV0-4lwXJKQor-28" value="word_un-stacker out" style="rounded=0;whiteSpace=wrap;html=1;fillColor=#fff2cc;strokeColor=#d6b656;" parent="1" vertex="1">
          <mxGeometry x="720" y="350" width="90" height="60" as="geometry" />
        </mxCell>
        <mxCell id="SgAXbenAV0-4lwXJKQor-30" value="out" style="triangle;whiteSpace=wrap;html=1;fillColor=#dae8fc;strokeColor=#6c8ebf;" parent="1" vertex="1">
          <mxGeometry x="870" y="350" width="60" height="60" as="geometry" />
        </mxCell>
        <mxCell id="SgAXbenAV0-4lwXJKQor-32" value="out [31:0]" style="text;html=1;align=center;verticalAlign=middle;resizable=0;points=[];autosize=1;strokeColor=none;fillColor=none;" parent="1" vertex="1">
          <mxGeometry x="805" y="353" width="70" height="30" as="geometry" />
        </mxCell>
        <mxCell id="SgAXbenAV0-4lwXJKQor-37" value="" style="edgeStyle=orthogonalEdgeStyle;rounded=0;orthogonalLoop=1;jettySize=auto;html=1;" parent="1" source="SgAXbenAV0-4lwXJKQor-35" target="SgAXbenAV0-4lwXJKQor-1" edge="1">
          <mxGeometry relative="1" as="geometry" />
        </mxCell>
        <mxCell id="SgAXbenAV0-4lwXJKQor-35" value="FSM" style="rounded=0;whiteSpace=wrap;html=1;fillColor=#d5e8d4;strokeColor=#82b366;" parent="1" vertex="1">
          <mxGeometry x="580" y="220" width="80" height="40" as="geometry" />
        </mxCell>
        <mxCell id="SgAXbenAV0-4lwXJKQor-36" value="" style="endArrow=classic;html=1;rounded=0;entryX=0.5;entryY=0;entryDx=0;entryDy=0;exitX=0.75;exitY=1;exitDx=0;exitDy=0;edgeStyle=orthogonalEdgeStyle;" parent="1" source="SgAXbenAV0-4lwXJKQor-35" target="SgAXbenAV0-4lwXJKQor-30" edge="1">
          <mxGeometry width="50" height="50" relative="1" as="geometry">
            <mxPoint x="830" y="310" as="sourcePoint" />
            <mxPoint x="880" y="260" as="targetPoint" />
            <Array as="points">
              <mxPoint x="640" y="280" />
              <mxPoint x="900" y="280" />
            </Array>
          </mxGeometry>
        </mxCell>
        <mxCell id="SgAXbenAV0-4lwXJKQor-38" value="" style="endArrow=classic;html=1;rounded=0;exitX=0.25;exitY=1;exitDx=0;exitDy=0;entryX=0.5;entryY=0;entryDx=0;entryDy=0;edgeStyle=orthogonalEdgeStyle;" parent="1" source="SgAXbenAV0-4lwXJKQor-35" target="SgAXbenAV0-4lwXJKQor-16" edge="1">
          <mxGeometry width="50" height="50" relative="1" as="geometry">
            <mxPoint x="370" y="240" as="sourcePoint" />
            <mxPoint x="420" y="190" as="targetPoint" />
            <Array as="points">
              <mxPoint x="600" y="280" />
              <mxPoint x="270" y="280" />
            </Array>
          </mxGeometry>
        </mxCell>
        <mxCell id="SgAXbenAV0-4lwXJKQor-39" value="" style="endArrow=classic;html=1;rounded=0;entryX=0.5;entryY=0;entryDx=0;entryDy=0;edgeStyle=orthogonalEdgeStyle;" parent="1" target="SgAXbenAV0-4lwXJKQor-17" edge="1">
          <mxGeometry width="50" height="50" relative="1" as="geometry">
            <mxPoint x="220" y="370" as="sourcePoint" />
            <mxPoint x="400" y="150" as="targetPoint" />
          </mxGeometry>
        </mxCell>
        <mxCell id="SgAXbenAV0-4lwXJKQor-40" value="" style="endArrow=none;html=1;rounded=0;" parent="1" edge="1">
          <mxGeometry width="50" height="50" relative="1" as="geometry">
            <mxPoint x="220" y="370" as="sourcePoint" />
            <mxPoint x="220" y="280" as="targetPoint" />
          </mxGeometry>
        </mxCell>
        <mxCell id="SgAXbenAV0-4lwXJKQor-41" value="" style="endArrow=none;html=1;rounded=0;" parent="1" edge="1">
          <mxGeometry width="50" height="50" relative="1" as="geometry">
            <mxPoint x="220" y="280" as="sourcePoint" />
            <mxPoint x="270" y="280" as="targetPoint" />
          </mxGeometry>
        </mxCell>
        <mxCell id="A_sIEahZJqi15oN8YQ3Y-2" value="" style="group" parent="1" vertex="1" connectable="0">
          <mxGeometry x="605" y="446" width="30" height="50" as="geometry" />
        </mxCell>
        <mxCell id="A_sIEahZJqi15oN8YQ3Y-3" value="" style="rounded=0;whiteSpace=wrap;html=1;fillColor=#f5f5f5;fontColor=#333333;strokeColor=#666666;" parent="A_sIEahZJqi15oN8YQ3Y-2" vertex="1">
          <mxGeometry width="30" height="50" as="geometry" />
        </mxCell>
        <mxCell id="A_sIEahZJqi15oN8YQ3Y-4" value="" style="triangle;whiteSpace=wrap;html=1;direction=north;strokeColor=#666666;" parent="A_sIEahZJqi15oN8YQ3Y-2" vertex="1">
          <mxGeometry x="7.5" y="41.66666666666667" width="15" height="8.333333333333334" as="geometry" />
        </mxCell>
        <mxCell id="A_sIEahZJqi15oN8YQ3Y-8" value="=1" style="rounded=0;whiteSpace=wrap;html=1;" parent="1" vertex="1">
          <mxGeometry x="480" y="390" width="30" height="40" as="geometry" />
        </mxCell>
        <mxCell id="A_sIEahZJqi15oN8YQ3Y-10" value="" style="edgeStyle=orthogonalEdgeStyle;rounded=0;orthogonalLoop=1;jettySize=auto;html=1;entryX=-0.003;entryY=0.709;entryDx=0;entryDy=0;entryPerimeter=0;exitX=1;exitY=0.5;exitDx=0;exitDy=0;" parent="1" source="A_sIEahZJqi15oN8YQ3Y-8" target="SgAXbenAV0-4lwXJKQor-1" edge="1">
          <mxGeometry relative="1" as="geometry">
            <mxPoint x="591.1200000000001" y="376.2399999999998" as="targetPoint" />
            <mxPoint x="550" y="340" as="sourcePoint" />
            <Array as="points">
              <mxPoint x="560" y="410" />
              <mxPoint x="560" y="397" />
            </Array>
          </mxGeometry>
        </mxCell>
        <mxCell id="A_sIEahZJqi15oN8YQ3Y-15" value="&lt;div&gt;word&lt;/div&gt;&lt;div&gt;[127:0]&lt;/div&gt;" style="text;html=1;align=center;verticalAlign=middle;resizable=0;points=[];autosize=1;strokeColor=none;fillColor=none;" parent="1" vertex="1">
          <mxGeometry x="416" y="363" width="60" height="40" as="geometry" />
        </mxCell>
        <mxCell id="A_sIEahZJqi15oN8YQ3Y-16" value="key [127:0]" style="text;html=1;align=center;verticalAlign=middle;resizable=0;points=[];autosize=1;strokeColor=none;fillColor=none;" parent="1" vertex="1">
          <mxGeometry x="460" y="305" width="80" height="30" as="geometry" />
        </mxCell>
        <mxCell id="A_sIEahZJqi15oN8YQ3Y-17" value="" style="endArrow=classic;html=1;rounded=0;entryX=1;entryY=0.5;entryDx=0;entryDy=0;" parent="1" target="A_sIEahZJqi15oN8YQ3Y-3" edge="1">
          <mxGeometry width="50" height="50" relative="1" as="geometry">
            <mxPoint x="690" y="380" as="sourcePoint" />
            <mxPoint x="710" y="440" as="targetPoint" />
            <Array as="points">
              <mxPoint x="690" y="470" />
            </Array>
          </mxGeometry>
        </mxCell>
        <mxCell id="A_sIEahZJqi15oN8YQ3Y-18" value="" style="endArrow=classic;html=1;rounded=0;exitX=0;exitY=0.5;exitDx=0;exitDy=0;entryX=0;entryY=0.75;entryDx=0;entryDy=0;" parent="1" source="A_sIEahZJqi15oN8YQ3Y-3" target="A_sIEahZJqi15oN8YQ3Y-8" edge="1">
          <mxGeometry width="50" height="50" relative="1" as="geometry">
            <mxPoint x="450" y="510" as="sourcePoint" />
            <mxPoint x="500" y="460" as="targetPoint" />
            <Array as="points">
              <mxPoint x="510" y="470" />
              <mxPoint x="460" y="470" />
              <mxPoint x="460" y="420" />
            </Array>
          </mxGeometry>
        </mxCell>
        <mxCell id="A_sIEahZJqi15oN8YQ3Y-19" value="&lt;div&gt;last_out [127:0]&lt;/div&gt;" style="text;html=1;align=center;verticalAlign=middle;resizable=0;points=[];autosize=1;strokeColor=none;fillColor=none;" parent="1" vertex="1">
          <mxGeometry x="460" y="446" width="110" height="30" as="geometry" />
        </mxCell>
        <mxCell id="A_sIEahZJqi15oN8YQ3Y-20" value="&lt;div&gt;word_chained&lt;/div&gt;&lt;div&gt;[127:0]&lt;/div&gt;" style="text;html=1;align=center;verticalAlign=middle;resizable=0;points=[];autosize=1;strokeColor=none;fillColor=none;" parent="1" vertex="1">
          <mxGeometry x="485" y="370" width="100" height="40" as="geometry" />
        </mxCell>
      </root>
    </mxGraphModel>
  </diagram>
</mxfile>
